<svg xmlns="http://www.w3.org/2000/svg" viewBox="0 0 169 92">
  <title>Logo</title>
  <g fill="none" fill-rule="evenodd">
	<path d="m33.905 53.418-4.4898-0.074658-0.015545-0.37583c-0.048828-1.1826 0.28275-3.9149 0.71828-5.919 0.19354-0.89033 0.67608-2.7467 0.73495-2.8272 0.0035011-0.0048075 2.6754-0.75002 5.9376-1.656 3.2622-0.90603 5.9585-1.6631 5.9917-1.6825 0.033237-0.019324 0.17529-0.29939 0.31561-0.62234 1.3304-3.0617 3.4233-6.41 5.8654-9.3836l0.48128-0.58605-1.8958-1.4274c-1.0427-0.78504-2.6129-1.9674-3.4893-2.6274-0.87644-0.66004-1.5935-1.2228-1.5935-1.2507 0-0.077297 2.6631-2.7429 3.5721-3.5754 1.4761-1.352 3.0311-2.6682 4.556-3.8564l0.70712-0.55103 4.3049 1.9085c2.3677 1.0497 4.3316 1.9015 4.3643 1.8929s0.42573-0.26102 0.87354-0.56097c0.9613-0.64388 2.4744-1.5987 2.497-1.5758 0.017832 0.017957-0.32401 1.7402-0.98819 4.9787-0.4424 2.1571-0.4458 2.1702-0.59668 2.3103-0.083466 0.077533-0.51653 0.47189-0.96233 0.87638-0.9909 0.8991-2.8811 2.8258-3.688 3.7591-4.079 4.7186-6.6231 9.5785-7.544 14.411-0.066194 0.34765-0.12959 0.64133-0.14079 0.65269-0.011203 0.011265-0.030856-0.0089081-0.043647-0.044917-0.308-0.86559-2.2538-6.0629-2.2806-6.0919-0.0069088-0.0074469-0.70423 1.3878-1.5496 3.1004-2.1288 4.3128-3.5807 7.0242-5.6224 10.5l-0.22696 0.38639-0.65139-0.0063629c-0.35823-0.003535-2.6718-0.040016-5.1412-0.081068zm102.15 9.8335c-1.6141-1.0793-3.6857-2.443-4.5943-3.0243-0.45645-0.29203-0.67263-0.45624-0.64583-0.49055 0.022174-0.028327 0.29059-0.38979 0.59649-0.80318 5.6319-7.6102 8.502-15.618 8.3259-23.23-0.063859-2.7609-0.46863-5.2267-1.2647-7.7041-1.1262-3.5049-2.8165-6.5173-5.2982-9.4422-0.55247-0.65114-1.9568-2.0901-2.6561-2.7215-3.1238-2.8208-6.8195-5.0719-11.213-6.83-0.48623-0.19456-0.93638-0.36551-1.0003-0.37989-0.10877-0.024462-0.2441 0.16082-2.0937 2.867-1.0875 1.5912-1.9925 2.9199-2.0111 2.9525-0.023667 0.041712 0.24017 0.21012 0.88404 0.56446 5.6883 3.1304 9.6941 6.8086 12.049 11.064 1.9262 3.48 2.8545 7.4917 2.7392 11.838-0.026562 1.0028-0.14536 2.7166-0.19153 2.7632-0.010316 0.010463-1.1582-0.14522-2.5509-0.34586l-2.5321-0.36485-0.026562-1.6252c-0.028382-1.7392-0.09929-2.551-0.33475-3.833-0.88092-4.7958-3.4466-8.793-8.1419-12.685-1.2962-1.0744-3.7537-2.8301-4.7457-3.3904-1.992-1.1252-4.8384-2.3116-7.3003-3.0429-8.4979-2.5241-18.481-1.8633-27.884 1.8458l-0.94128 0.37131-0.024928-0.14611c-0.013724-0.080314-0.18257-1.2347-0.37527-2.5653-0.19265-1.3306-0.42214-2.8949-0.50999-3.4763l-0.15979-1.0569 0.18794-2.6777c0.10335-1.4727 0.19723-2.724 0.20862-2.7807 0.017552-0.087101 0.13066-0.13937 0.73004-0.33742 3.0521-1.0085 6.7624-1.9495 10.126-2.5682 0.75656-0.13914 1.1914-0.20017 1.2097-0.16977 0.015638 0.026111 0.46779 1.848 1.0047 4.0486l0.97629 4.0011 0.21016-0.027997c0.41229-0.054909 2.1794-0.21082 3.0715-0.27106 1.1528-0.077816 4.9012-0.077957 6.0019-3.7706e-4 1.2287 0.086818 2.6484 0.23397 3.6425 0.37758l0.89114 0.12877 2.3507-2.2573c1.2929-1.2415 3.6323-3.5098 5.1986-5.0406 2.3843-2.3303 2.8691-2.7833 2.9779-2.7833 0.32448 0 4.1843 0.70713 5.6666 1.0378 3.8235 0.85305 7.8867 2.33 11.562 4.2028 9.6665 4.9258 16.124 12.51 18.471 21.695 1.1323 4.4301 1.2805 9.1709 0.43698 13.981-1.176 6.7068-4.2941 13.558-9.1057 20.008-0.98576 1.3214-2.5016 3.1995-2.5805 3.1973-0.018439 0-0.61978-0.39295-1.3363-0.872v1.414e-4zm-63.532 0.63808v26.589h-1.2097v-26.589h1.2097zm-50.132 3.4557v11.704l0.0054286 0.32886c0.021714 0.64343 0.10857 1.2011 0.26057 1.6731 0.17733 0.55067 0.42 0.99867 0.728 1.344 0.308 0.34533 0.68133 0.59267 1.12 0.742 0.43867 0.14933 0.91933 0.224 1.442 0.224 1.064 0 1.9273-0.32667 2.59-0.98 0.66267-0.65333 0.994-1.764 0.994-3.332v-11.704h4.368v12.068l-0.0074375 0.42262c-0.034708 0.97592-0.1909 1.8804-0.46856 2.7134-0.31733 0.952-0.80267 1.7687-1.456 2.45-0.65333 0.68133-1.484 1.2087-2.492 1.582-1.008 0.37333-2.2027 0.56-3.584 0.56-1.3627 0-2.5387-0.19133-3.528-0.574-0.98933-0.38267-1.806-0.91467-2.45-1.596-0.644-0.68133-1.12-1.4933-1.428-2.436-0.308-0.94267-0.462-1.9833-0.462-3.122v-12.068h4.368zm35.482 0.048967v7.42h7.336v-7.42h4.368v19.404h-4.368v-8.232h-7.336v8.232h-4.368v-19.404h4.368zm-41.617-0.048967v3.724h-5.852v15.68h-4.368v-15.68h-5.852v-3.724h16.072zm23.778 0v7.42h7.336v-7.42h4.368v19.404h-4.368v-8.232h-7.336v8.232h-4.368v-19.404h4.368zm40.99 22.158c0.26842-1.4342 0.78891-4.0049 0.8165-4.0326 0.0061152-0.0061744 0.31468-0.045954 0.68574-0.088373 2.4354-0.27874 5.659-0.83406 8.206-1.4136 10.771-2.451 20.563-6.9313 28.858-13.205 0.48964-0.37027 0.90197-0.67324 0.9163-0.67324 0.014285 0 0.29414 0.16586 0.62188 0.36858 1.6937 1.0476 4.178 2.3242 5.934 3.0493 0.32275 0.13329 0.3959 0.18066 0.35529 0.2301-0.028148 0.034171-0.46228 0.37593-0.96476 0.75945-11.912 9.0913-26.888 14.862-42.508 16.378-1.2518 0.12155-2.4777 0.2129-2.8573 0.2129h-0.3608l0.29675-1.5854z" fill="#DD194F"></path>
	<path d="m15.413 60.711c1.4974 0 2.7113-1.2139 2.7113-2.7113s-1.2139-2.7113-2.7113-2.7113c-1.4974 0-2.7113 1.2139-2.7113 2.7113s1.2139 2.7113 2.7113 2.7113zm0 1.1532c2.1343 0 3.8645-1.7302 3.8645-3.8645s-1.7302-3.8645-3.8645-3.8645c-2.1343 0-3.8645 1.7302-3.8645 3.8645s1.7302 3.8645 3.8645 3.8645z" fill="#242424"></path>
	<path d="m117.14 38.269c0.053824-0.049206 0.09789-0.11863 0.09789-0.15426 0-0.080502-1.9984-5.1205-2.5117-6.3346-0.20717-0.48999-0.40202-0.91659-0.43292-0.94793-0.031043-0.031437-0.082626-0.040581-0.11502-0.020361-0.032304 0.020126-0.19237 0.39459-0.35566 0.83212-0.16329 0.43748-0.63645 1.6622-1.0514 2.7215-1.1368 2.9019-1.45 3.7728-1.3946 3.8774 0.064747 0.12217 0.1603 0.12589 3.0998 0.12042 2.4542-0.0045719 2.57-0.0086724 2.6636-0.094265zm-18.126 10.754c-1.5166-0.27775-2.6079-1.1816-3.024-2.5046-0.26991-0.85824-0.27028-0.86521-0.27028-5.623-4.67e-5 -4.6552 0.0049015-4.5532-0.22239-4.6007-0.056858-0.01183-0.52208-0.044682-1.0339-0.072961-1.2824-0.070887-1.2331-0.059953-1.2321-0.27276 0.0012604-0.26126 0.12132-0.78301 0.24213-1.0518l0.10709-0.23825 0.65083-0.13296c1.0083-0.20602 1.3816-0.32578 1.4515-0.46562 0.043927-0.087855 0.058911-0.53462 0.059425-1.7729l7.002e-4 -1.6555 0.47689-0.24075c0.70516-0.35599 1.4029-0.75445 1.8494-1.0562 0.39338-0.26578 0.39768-0.26734 0.80898-0.29019l0.41355-0.023048-0.031276 0.46411c-0.088974 1.3194-0.12025 1.9893-0.14891 3.1887-0.030389 1.2702-0.028335 1.3182 0.060078 1.3976 0.085753 0.077062 0.20017 0.079324 1.8093 0.035444 0.94473-0.025782 2.0915-0.069426 2.5485-0.096952 0.45687-0.027572 0.84049-0.040204 0.8524-0.028185 0.01195 0.012066-0.030996 0.26177-0.095416 0.55489-0.12123 0.5514-0.23284 1.1617-0.28574 1.5623l-0.030436 0.23071-2.3805-0.028232-2.3805-0.02828-0.084306 0.11562c-0.079451 0.10897-0.08482 0.32022-0.093035 3.6731-0.0090095 3.6684 0.0042012 4.0097 0.18458 4.7554 0.21599 0.89321 0.82383 1.4688 1.7608 1.6675 0.84591 0.17929 2.1599-0.018476 3.4429-0.51822 1.0103-0.39356 1.5136-0.80003 1.8763-1.5153 0.94417-1.8619 5.4516-12.592 6.6917-15.929 0.2967-0.79861 0.66726-1.9069 0.66745-1.9963 0-0.0030636 0.68047-0.0056559 1.5121-0.0056559 1.9779-0.286 1.7202 0.90749 2.3453 2.5033 1.9638 4.961 5.6784 13.734 6.5753 15.529 0.98912 1.9798 1.4702 2.3376 3.5252 2.6227 0.41892 0.058114 0.7504 0.12721 0.79092 0.16478 0.09775 0.090683 0.087433 0.79715-0.016852 1.1539l-0.079124 0.27073-0.66152-0.035821c-0.86131-0.046661-7.3449-0.046378-8.8626 4.714e-4l-1.1756 0.036198-0.052796-0.13013c-0.070395-0.17354-0.076604-1.1366-0.008123-1.2549 0.044021-0.075978 0.17636-0.10902 0.79045-0.19744 1.1352-0.16341 1.5675-0.27558 1.7568-0.45587 0.090235-0.085875 0.17972-0.23208 0.20876-0.34096 0.044627-0.16727 0.034497-0.2391-0.082626-0.58609-0.5161-1.529-1.9283-4.9573-2.1268-5.1628-0.094996-0.098413-0.17277-0.12179-0.49617-0.14894-0.52166-0.043786-6.3704-0.041665-6.6774 0.0024509-0.43511 0.062545-0.43138 0.056653-1.1418 1.8174-0.35356 0.87629-0.76146 1.9421-0.90645 2.3684-0.24489 0.71995-0.2637 0.80568-0.26445 1.206-8.87e-4 0.4792 0.050695 0.59816 0.34833 0.80271 0.30119 0.20686 1.1822 0.40364 2.4177 0.5399l0.53366 0.058821 0.041873 0.21125c0.047662 0.24042-0.021193 0.93794-0.11259 1.1405l-0.057838 0.12811-1.144-0.035444c-0.62917-0.019466-2.2536-0.035302-3.6098-0.035208-2.5829 0-2.6222 0.0021681-5.1868 0.26078-1.4658 0.14781-2.2836 0.16765-2.8248 0.068578l-4.67e-5 -1.414e-4zm-14.321 0.20479c-1.0978-0.10525-2.7704-0.47165-4.0331-0.88355l-0.59014-0.19249-0.10022-0.26936c-0.31122-0.8366-0.82467-3.1639-1.0675-4.8385l-0.093409-0.64425 0.10667-0.1077c0.15937-0.16086 0.72244-0.3403 1.1677-0.37197l0.38675-0.027572 0.083419 0.22963c0.94347 2.5971 1.8373 3.8647 3.315 4.7009 0.6652 0.37645 1.6733 0.64539 2.6924 0.71835 2.3121 0.16544 4.0671-0.88637 4.4581-2.6719 0.10807-0.49352 0.099571-1.2903-0.018719-1.7567-0.1554-0.6123-0.37611-0.97724-0.93119-1.5398-0.74251-0.75238-1.4187-1.1841-3.9243-2.5052-2.2287-1.1751-3.2102-1.7968-4.1034-2.5993-0.96182-0.86408-1.5881-1.8879-1.8433-3.0133-0.13038-0.57497-0.16483-1.6714-0.071749-2.2838 0.31991-2.1052 1.6865-3.7082 3.9157-4.5927 1.3337-0.52925 2.9008-0.73678 4.8746-0.64562 1.3974 0.064524 1.9103 0.12829 5.1449 0.63954 0.13346 0.021068 0.1519 0.039403 0.12814 0.1273-0.056251 0.20837-0.21361 1.2048-0.30562 1.9348-0.097843 0.77655-0.32733 3.0006-0.32733 3.1724 0 0.16001-0.25516 0.23368-0.80109 0.23128-0.27476-0.0012254-0.53655-0.027195-0.61502-0.060989-0.13341-0.057454-0.13864-0.072961-0.22071-0.64939-0.26417-1.8558-0.73975-2.7806-1.6674-3.2425-0.83498-0.4158-1.6126-0.57379-2.814-0.57176-0.71212 0.0011783-0.89324 0.016732-1.2097 0.1036-1.2655 0.3476-2.2014 1.2015-2.5823 2.3562-0.12665 0.38399-0.17202 1.1556-0.096676 1.6431 0.12338 0.79805 0.39548 1.3334 0.98072 1.9295 0.63668 0.6485 1.828 1.3843 3.5592 2.1984 0.43507 0.20456 1.2436 0.5843 1.7968 0.84381 0.55317 0.25951 1.2022 0.58119 1.4423 0.71481 1.1431 0.63601 2.0629 1.3869 2.6102 2.1309 1.2912 1.7553 1.2791 4.3345-0.029782 6.3172-1.2802 1.9394-3.6908 3.2036-6.6337 3.4792-0.61554 0.057643-1.9693 0.056323-2.5822-0.0024509v-4.72e-5zm51.481 23.842c-1.421-0.1726-3.0419-0.61612-4.7929-1.3116-0.94711-0.37621-2.3432-1.0058-4.3728-1.9722-3.9115-1.8623-5.6544-2.5297-7.6549-2.9309-1.0501-0.21064-1.6112-0.25692-2.7358-0.22567-1.3441 0.037376-2.2821 0.17194-3.823 0.54834-1.5781 0.3855-2.8061 0.80422-6.0252 2.0544-2.4481 0.9508-3.85 1.4338-4.9318 1.6991-1.2843 0.31503-1.6423 0.35854-2.9079 0.35359-0.98824-0.0038648-1.1942-0.018476-1.7913-0.12693-2.2571-0.4101-4.3449-1.3552-6.3509-2.875-0.53277-0.40369-1.2061-1.0059-1.1678-1.0446 0.012137-0.012254 0.29036 0.083754 0.61824 0.21337 1.71 0.67602 3.1624 0.96603 5.4814 1.0944 2.7348 0.15148 4.6955-0.16011 7.4102-1.1777 0.40258-0.15087 1.5485-0.60598 2.5464-1.0114 3.9821-1.6175 6.0882-2.1374 8.9796-2.2165 1.8398-0.050338 3.276 0.1742 5.2056 0.8137 2.223 0.73682 4.3961 1.7929 9.0547 4.4004 2.718 1.5213 4.179 2.2202 5.764 2.7575 1.7758 0.60193 3.349 0.89736 5.2394 0.98384 0.56414 0.025781 0.26588 0.034595-1.2329 0.036339-1.4073 0.0016497-2.1316-0.016449-2.5124-0.062686zm-64.546-33.09c-0.82488-5.5237-1.3457-9.0391-1.5623-10.546-0.20054-1.3952-0.37662-2.4839-0.39119-2.4193-0.014564 0.064572-0.12412 0.80446-0.24344 1.6442-0.28843 2.0295-0.96731 5.824-2.0366 11.383l4.2336-0.062026zm0.42596 2.8899c-0.035478-0.035821-5.1154-0.45841-5.1454-0.42806-0.011234 0.011375-1.0912 6.0132-3.2398 18.006l-7.5897-3.4227-4.0269 6.3505-5.6432-12.763-5.4044 7.9198-21.926 0.0033464 0.044767-1.0804h10.127 10.127l7.8265-13.881 4.8476 14.13 2.3937-6.5774 4.0032 1.9082c1.5117-8.0293 2.856-14.839 4.0329-20.429 3.0896-14.676 5.6292-29.287 5.6431-29.302 0.027137-0.026935 1.4634 1.5481 4.3088 4.725l0.1835 1.2137c1.5098 9.9866 2.7314 18.921 5.2596 38.466 1.154 8.9216 2.0951 16.085 2.8233 21.492 1.2801-4.3248 2.4584-7.3143 3.5347-8.9685 3.5915-5.5195 9.0766-8.7434 16.184-9.5123 1.7888-0.19357 4.5128-0.2178 5.9787-0.05326 5.0374 0.56554 9.8369 2.3529 16.307 6.0731 2.0204 1.1617 4.0912 2.4373 8.0258 4.9441 7.1569 4.5598 10.057 6.2826 13.888 8.2486 6.2817 3.2241 11.989 5.1986 17.836 6.1713 1.7386 0.2892 4.051 0.53825 5.5567 0.59849 0.40402 0.016214 0.74298 0.043079 0.75399 0.059811 0.009481 0.016685-0.17458 0.02366-0.40967 0.015412-9.2321-0.32356-18.155-2.302-28.746-6.3735-3.456-1.3286-6.2663-2.5194-12.904-5.4676-7.6796-3.4109-10.767-4.6524-14.121-5.6781-3.104-0.9493-5.536-1.3935-7.9792-1.4574-4.2938-0.11236-8.2806 1.0009-11.608 3.2416-4.6562 3.1351-8.2197 8.4863-10.751 16.144-0.43809 1.3254-1.5921 5.3217-3.4621 11.989-4.4807-30.863-6.7244-46.298-6.731-46.304z" fill="#242424"></path>
  </g>
</svg>
