<?xml version="1.0" encoding="utf-8"?>
<!-- Generator: Adobe Illustrator 28.3.0, SVG Export Plug-In . SVG Version: 6.00 Build 0)  -->
<svg version="1.1" xmlns="http://www.w3.org/2000/svg" xmlns:xlink="http://www.w3.org/1999/xlink" x="0px" y="0px"
	 viewBox="0 0 425.2 425.2" style="enable-background:new 0 0 425.2 425.2;" xml:space="preserve">
<style type="text/css">
	.st0{display:none;}
	.st1{display:inline;fill:#FFFFFF;}
	.st2{display:inline;fill:#294999;}
	.st3{fill:#010202;}
	.st4{display:inline;fill:none;}
	.st5{display:inline;}
	.st6{font-family:'Poppins-SemiBold';}
	.st7{font-size:55px;}
</style>
<circle cx="212.6" cy="212.6" r="212.6" fill="white"/>
<g id="Ebene_3" class="st0">
	<rect class="st1" width="425.2" height="425.2"/>
	<rect x="0.08" class="st2" width="425.2" height="425.2"/>
</g>
<g id="Ebene_2">
	<g>

			<ellipse transform="matrix(0.7071 -0.7071 0.7071 0.7071 17.319 293.6837)" class="st3" cx="363.17" cy="125.94" rx="9.59" ry="9.59"/>
		
			<ellipse transform="matrix(0.7071 -0.7071 0.7071 0.7071 -213.5973 264.6626)" class="st3" cx="212.68" cy="390.17" rx="9.59" ry="9.59"/>
		
			<ellipse transform="matrix(0.9732 -0.2298 0.2298 0.9732 -27.2705 17.6566)" class="st3" cx="62.19" cy="125.94" rx="9.59" ry="9.59"/>
		<path class="st3" d="M83.55,308.33l-3.63-4.04c0.94-1.37,1.68-2.89,2.16-4.53l5.43,0.29l0.4-7.48l-5.43-0.29
			c-0.31-1.68-0.87-3.28-1.66-4.74l4.03-3.63l-5.01-5.57l-4.04,3.63c-1.37-0.94-2.89-1.68-4.53-2.16l0.29-5.43l-7.48-0.4l-0.29,5.43
			c-1.68,0.31-3.28,0.87-4.74,1.66l-3.63-4.03l-5.57,5.01l3.63,4.04c-0.94,1.37-1.68,2.89-2.16,4.53l-5.43-0.29l-0.4,7.48l5.43,0.29
			c0.31,1.68,0.87,3.28,1.66,4.74l-4.03,3.63l5.01,5.57l4.04-3.63c1.37,0.94,2.89,1.68,4.53,2.16L61.84,316l7.48,0.4l0.29-5.43
			c1.68-0.31,3.28-0.87,4.74-1.66l3.63,4.04L83.55,308.33z M66.7,302.92c-4.27,0-7.73-3.46-7.73-7.73c0-4.27,3.46-7.73,7.73-7.73
			s7.73,3.46,7.73,7.73C74.42,299.46,70.97,302.92,66.7,302.92z"/>
		
			<ellipse transform="matrix(0.9732 -0.2298 0.2298 0.9732 -58.8045 91.3511)" class="st3" cx="362.88" cy="298.2" rx="9.59" ry="9.59"/>
		<path class="st3" d="M187.21,73.53c2.15-0.31,3.98,1.49,6.21,2.87c2.96,1.84,2.18,5,3.79,8.28c1,2.03,1.87,8.67,2.26,11.99
			l10.39,12.38V24.7l-41.38,35.02l13.4,15.97C183.18,74.38,185.53,73.77,187.21,73.53z"/>
		<path class="st3" d="M214.69,24.7l0,84.35l42.15-49.33L214.69,24.7z M229.57,72.34c-3.27,0-5.92-2.65-5.92-5.92
			s2.65-5.92,5.92-5.92s5.92,2.65,5.92,5.92S232.83,72.34,229.57,72.34z"/>
		<g>
			<g>
				<g>
					<path class="st3" d="M197.14,113.62c0,4.87,0.07,9.73-0.04,14.6c-0.04,1.67-0.17,3.49-0.84,4.98
						c-4.54,10.23-6.81,21.08-8.3,32.03c-1.32,9.69-1.52,19.53-2.19,29.3c-0.17,2.46-0.33,4.92-0.35,7.39
						c-0.01,0.78,0.27,1.75,0.78,2.27c0.26,0.27,1.43-0.1,2.02-0.45c12.78-7.53,25.53-15.09,38.29-22.65
						c1.32-0.78,5.77-3.93,8.09-1.66c2.32,2.27,22.89,26.43,35.44,38.6c6.05,5.86,12.71,11.1,18.99,16.73
						c1.49,1.34,2.8,2.99,3.8,4.73c1.1,1.92,0.5,2.78-1.7,2.51c-3.97-0.49-7.9-1.28-11.87-1.86c-3.11-0.46-6.24-1.04-9.36-1.1
						c-2.84-0.05-4.66-1.22-5.43-3.74c-1.23-4.01-3.88-6.7-7.3-8.87c-9.65-6.11-26.51-17.28-28.95-18.33s-6.58,1.45-8.33,4.5
						c-1.05,1.84-7.02,12.66-10.45,16.99c-4.92,6.18-9.35,12.75-13.97,19.17c-3.06,4.25-3.05,4.26-8.15,3.06
						c-2.41-0.57-4.87-0.95-7.2-1.75c-1.26-0.43-2.65-1.33-3.34-2.42c-6.78-10.74-13.38-21.6-20.11-32.37
						c-3.66-5.85-7.44-11.64-11.24-17.4c-2-3.03-1.98-2.79-5.18-1.2c-15.43,7.63-30.7,15.67-47.36,20.48
						c-1.06,0.31-2.19,0.58-3.11,1.16c-2.39,1.49-4.65-0.2-5.88-1.25c-1.33-1.14-1.38-3.87-1.74-5.95c-0.06-0.37,1-1.04,1.63-1.42
						c9.32-5.66,18.73-11.18,27.96-16.98c9.03-5.66,17.88-11.6,26.81-17.42c7.29-4.74,14.59-9.46,21.85-14.24
						c5.42-3.56,9.26-8.15,11.43-14.51c3.49-10.24,8.24-20.06,9.8-30.9c1.04-7.24,2.25-14.48,2.72-21.77
						c0.24-3.73-0.97-7.56-1.53-11.34c-0.12-0.84-0.4-1.69-0.31-2.51c0.26-2.2,1.95-2.9,3.93-2.13c7.13,2.77,9.06,9.07,9.9,15.52
						C197.28,100.09,197.2,113.62,197.14,113.62z"/>
					<path class="st3" d="M245.34,253.9c0,1.64-8.74,15.72-13.51,23.75c-5.52,9.28-11.1,18.53-16.65,27.79
						c-1.4,2.34-1.62,4.81-1.49,7.58c0.24,5.34-0.01,10.72-0.36,16.06c-0.08,1.19-1.34,3.17-2.19,3.24
						c-1.17,0.09-2.74-1.04-3.63-2.07c-1.08-1.26-1.58-2.99-2.43-4.47c-3.08-5.38-6.18-10.74-9.29-16.1
						c-0.76-1.3-2.03-2.57-0.54-4.1c5.29-5.44,8.05-12.39,11.25-19.05c3.36-6.98,6.36-14.12,9.59-21.16
						c0.77-1.68-0.39-1.86-1.42-2.28c-4.34-1.75-8.69-3.48-13.02-5.27c-1.07-0.44-2.06-1.08-3.4-1.8c3.19-3.85,6.15-7.45,9.13-11.03
						c1.8-2.16,3.74-4.21,5.4-6.46c1.55-2.11,3.09-2.4,5.36-1.07c5.8,3.4,11.69,6.67,17.57,9.93c2.61,1.45,5.3,2.74,7.93,4.14
						C244.51,251.98,245.34,252.26,245.34,253.9z"/>
					
						<ellipse transform="matrix(0.9376 -0.3478 0.3478 0.9376 -42.0589 59.5293)" class="st3" cx="144.81" cy="146.93" rx="15.04" ry="13.76"/>
				</g>
			</g>
			<g>
				<g>
					<path d="M197.14,113.62c0,4.87,0.07,9.73-0.04,14.6c-0.04,1.67-0.17,3.49-0.84,4.98c-4.54,10.23-6.81,21.08-8.3,32.03
						c-1.32,9.69-1.52,19.53-2.19,29.3c-0.17,2.46-0.33,4.92-0.35,7.39c-0.01,0.78,0.27,1.75,0.78,2.27
						c0.26,0.27,1.43-0.1,2.02-0.45c12.78-7.53,25.53-15.09,38.29-22.65c1.32-0.78,5.77-3.93,8.09-1.66
						c2.32,2.27,22.89,26.43,35.44,38.6c6.05,5.86,12.71,11.1,18.99,16.73c1.49,1.34,2.8,2.99,3.8,4.73c1.1,1.92,0.5,2.78-1.7,2.51
						c-3.97-0.49-7.9-1.28-11.87-1.86c-3.11-0.46-6.24-1.04-9.36-1.1c-2.84-0.05-4.66-1.22-5.43-3.74c-1.23-4.01-3.88-6.7-7.3-8.87
						c-9.65-6.11-26.51-17.28-28.95-18.33s-6.58,1.45-8.33,4.5c-1.05,1.84-7.02,12.66-10.45,16.99
						c-4.92,6.18-9.35,12.75-13.97,19.17c-3.06,4.25-3.05,4.26-8.15,3.06c-2.41-0.57-4.87-0.95-7.2-1.75
						c-1.26-0.43-2.65-1.33-3.34-2.42c-6.78-10.74-13.38-21.6-20.11-32.37c-3.66-5.85-7.44-11.64-11.24-17.4
						c-2-3.03-1.98-2.79-5.18-1.2c-15.43,7.63-30.7,15.67-47.36,20.48c-1.06,0.31-2.19,0.58-3.11,1.16
						c-2.39,1.49-4.65-0.2-5.88-1.25c-1.33-1.14-1.38-3.87-1.74-5.95c-0.06-0.37,1-1.04,1.63-1.42
						c9.32-5.66,18.73-11.18,27.96-16.98c9.03-5.66,17.88-11.6,26.81-17.42c7.29-4.74,14.59-9.46,21.85-14.24
						c5.42-3.56,9.26-8.15,11.43-14.51c3.49-10.24,8.24-20.06,9.8-30.9c1.04-7.24,2.25-14.48,2.72-21.77
						c0.24-3.73-0.97-7.56-1.53-11.34c-0.12-0.84-0.4-1.69-0.31-2.51c0.26-2.2,1.95-2.9,3.93-2.13c7.13,2.77,9.06,9.07,9.9,15.52
						C197.28,100.09,197.2,113.62,197.14,113.62z"/>
					<path d="M245.34,253.9c0,1.64-8.74,15.72-13.51,23.75c-5.52,9.28-11.1,18.53-16.65,27.79c-1.4,2.34-1.62,4.81-1.49,7.58
						c0.24,5.34-0.01,10.72-0.36,16.06c-0.08,1.19-1.34,3.17-2.19,3.24c-1.17,0.09-2.74-1.04-3.63-2.07
						c-1.08-1.26-1.58-2.99-2.43-4.47c-3.08-5.38-6.18-10.74-9.29-16.1c-0.76-1.3-2.03-2.57-0.54-4.1
						c5.29-5.44,8.05-12.39,11.25-19.05c3.36-6.98,6.36-14.12,9.59-21.16c0.77-1.68-0.39-1.86-1.42-2.28
						c-4.34-1.75-8.69-3.48-13.02-5.27c-1.07-0.44-2.06-1.08-3.4-1.8c3.19-3.85,6.15-7.45,9.13-11.03c1.8-2.16,3.74-4.21,5.4-6.46
						c1.55-2.11,3.09-2.4,5.36-1.07c5.8,3.4,11.69,6.67,17.57,9.93c2.61,1.45,5.3,2.74,7.93,4.14
						C244.51,251.98,245.34,252.26,245.34,253.9z"/>
					
						<ellipse transform="matrix(0.9376 -0.3478 0.3478 0.9376 -42.0589 59.5293)" class="st3" cx="144.81" cy="146.93" rx="15.04" ry="13.76"/>
				</g>
			</g>
		</g>
		<g>
			<path class="st3" d="M150.58,241.74h18.6c0.51-5.29-0.28-6.82-1.98-6.77c-4.98,0.13-9.97,0.06-14.96-0.12
				c-1.3-0.05-1.79,1.55-1.7,5.28C150.56,240.67,150.57,241.21,150.58,241.74z"/>
			<path class="st3" d="M159.65,243.97c-2.29,0-6.7-0.37-8.95-0.57c0.06,0.74,0.11,1.45,0.16,2.08l0.15,3.45
				c0,2.92,0.02,5.78-0.01,8.64c-0.01,1.55,0.91,2.43,2.87,2.45c4.07,0.04,8.13,0.02,12.2,0c1.58-0.01,2.52-0.69,2.53-1.95
				c0.04-2.75,0.24-5.39,0.24-8.13l0.07-6.22c0.02-0.12,0.03-0.24,0.04-0.37C167.06,243.53,162.16,243.97,159.65,243.97z"/>
		</g>
		<path class="st3" d="M337.94,190.11h21.47v-48.34c-7.18-1.7-12.53-8.13-12.53-15.83c0-1.64,0.25-3.22,0.7-4.72l-91.26-52.69
			l-19.96,23.06l56.19,32.62L337.94,190.11z"/>
		<path class="st3" d="M338.24,234.87l-45.54,66.12l-80.02,46.44l-80.02-46.44L71.78,212.6l60.87-88.38l56.72-32.93L169.39,68.2
			l0.22,0.38l-91.75,52.97c0.39,1.4,0.62,2.87,0.62,4.39c0,7.8-5.49,14.31-12.82,15.91v127.32c0.35-0.01,0.69-0.05,1.04-0.05
			c14.4,0,26.08,11.68,26.08,26.08c0,7.89-3.52,14.95-9.06,19.73l115.22,66.52c2.89-4.54,7.95-7.56,13.73-7.56
			c5.79,0,10.85,3.03,13.74,7.57l124.71-72c-2.8-2.93-4.53-6.88-4.53-11.25c0-7.8,5.49-14.32,12.82-15.91v-47.43H338.24z"/>
		<path class="st3" d="M366.35,234.87v47.43c7.33,1.59,12.82,8.1,12.82,15.91c0,8.99-7.29,16.29-16.29,16.29
			c-1.8,0-3.52-0.3-5.13-0.84l-128.93,74.44c0.09,0.68,0.15,1.38,0.15,2.08c0,8.99-7.29,16.29-16.29,16.29
			c-8.99,0-16.29-7.29-16.29-16.29c0-0.71,0.06-1.41,0.15-2.1L77.09,319.1c-3.19,1.39-6.7,2.16-10.39,2.16
			c-14.4,0-26.08-11.68-26.08-26.08c0-11.62,7.6-21.45,18.1-24.82V141.84c-7.33-1.59-12.82-8.1-12.82-15.91
			c0-8.99,7.29-16.29,16.29-16.29c4.98,0,9.43,2.24,12.42,5.76l90.45-52.22l-3.57-4.12L213,16.83l51.51,42.24l-3.57,4.12
			l90.02,51.98c2.98-3.38,7.33-5.51,12.19-5.51c8.99,0,16.29,7.29,16.29,16.29c0,7.9-5.63,14.49-13.1,15.97v48.21h29.08v-83.02
			L212.68,1.57L29.92,107.09v211.02l182.75,105.51l182.75-105.51v-83.25H366.35z"/>
		<path class="st3" d="M320.75,227.97h74.68v-6.9h-81.17C316.13,223.53,318.3,225.83,320.75,227.97z M306.67,197.01
			c-0.06,0.8-0.09,1.6-0.09,2.41c0,1.51,0.1,3.01,0.3,4.48h88.54v-6.9H306.67z M310.91,215.94h84.52v-6.9h-87.41
			C308.73,211.42,309.7,213.72,310.91,215.94z"/>
	</g>
</g>
<g id="Ebene_5" class="st0">
	<rect x="30.79" y="328.53" class="st4" width="363.62" height="54.11"/>
	<text transform="matrix(1 0 0 1 55.8504 369.2328)" class="st5 st6 st7">BoulderING</text>
</g>
</svg>
